<svg width="24" height="24" viewBox="0 0 24 24" fill="none" xmlns="http://www.w3.org/2000/svg">
<g clip-path="url(#clip0)">
<path d="M24 8.25C24 8.11739 23.9473 7.99021 23.8536 7.89645C23.7598 7.80268 23.6326 7.75 23.5 7.75H0.5C0.367392 7.75 0.240215 7.80268 0.146447 7.89645C0.0526784 7.99021 0 8.11739 0 8.25L0 20.25C0 20.913 0.263392 21.5489 0.732233 22.0178C1.20107 22.4866 1.83696 22.75 2.5 22.75H21.5C21.8283 22.75 22.1534 22.6853 22.4567 22.5597C22.76 22.4341 23.0356 22.2499 23.2678 22.0178C23.4999 21.7856 23.6841 21.51 23.8097 21.2067C23.9353 20.9034 24 20.5783 24 20.25V8.25ZM16.235 14.118C16.4605 14.2092 16.6537 14.3656 16.7897 14.5673C16.9257 14.769 16.9984 15.0067 16.9984 15.25C16.9984 15.4933 16.9257 15.731 16.7897 15.9327C16.6537 16.1344 16.4605 16.2908 16.235 16.382L9.609 19.158C9.43547 19.233 9.24614 19.2642 9.05771 19.2488C8.86929 19.2333 8.68756 19.1718 8.52856 19.0695C8.36955 18.9672 8.23817 18.8274 8.14599 18.6623C8.05381 18.4972 8.00367 18.312 8 18.123V12.377C8.00343 12.1879 8.05341 12.0025 8.14553 11.8373C8.23764 11.6721 8.36905 11.5322 8.52812 11.4299C8.6872 11.3275 8.86904 11.266 9.05757 11.2507C9.24609 11.2353 9.43549 11.2667 9.609 11.342L16.235 14.118Z" fill="#88109B"/>
<path d="M19.563 1.677C19.598 1.6421 19.6218 1.5976 19.6316 1.54914C19.6413 1.50068 19.6364 1.45043 19.6176 1.40473C19.5987 1.35903 19.5668 1.31995 19.5257 1.29241C19.4847 1.26487 19.4364 1.25011 19.387 1.25H15.6C15.5727 1.25023 15.5466 1.26098 15.527 1.28L10.987 5.823C10.9519 5.85796 10.9281 5.90255 10.9184 5.9511C10.9087 5.99966 10.9136 6.04999 10.9326 6.09573C10.9516 6.14147 10.9837 6.18055 11.0249 6.20801C11.0661 6.23547 11.1145 6.25009 11.164 6.25H14.947C14.9746 6.24992 15.0011 6.23917 15.021 6.22L19.563 1.677Z" fill="#88109B"/>
<path d="M22.075 1.318C22.067 1.31605 22.0586 1.31622 22.0508 1.3185C22.0429 1.32078 22.0357 1.32509 22.03 1.331L17.538 5.823C17.5029 5.85797 17.4791 5.90255 17.4694 5.95111C17.4597 5.99966 17.4646 6.05 17.4836 6.09573C17.5026 6.14147 17.5347 6.18055 17.5759 6.20801C17.6171 6.23548 17.6655 6.25009 17.715 6.25H23.5C23.6326 6.25 23.7598 6.19732 23.8535 6.10356C23.9473 6.00979 24 5.88261 24 5.75V3.75C23.9998 3.1871 23.8096 2.64075 23.4602 2.19939C23.1109 1.75802 22.6228 1.44747 22.075 1.318Z" fill="#88109B"/>
<path d="M13.013 1.677C13.048 1.64204 13.0719 1.59745 13.0816 1.5489C13.0913 1.50034 13.0863 1.45001 13.0674 1.40427C13.0484 1.35853 13.0163 1.31945 12.9751 1.29199C12.9339 1.26453 12.8855 1.24991 12.836 1.25H9.09999C9.0727 1.25023 9.04656 1.26098 9.02699 1.28L4.48699 5.823C4.45194 5.85796 4.42806 5.90255 4.41837 5.95111C4.40869 5.99966 4.41364 6.05 4.4326 6.09573C4.45156 6.14147 4.48367 6.18055 4.52486 6.20801C4.56606 6.23548 4.61448 6.25009 4.66399 6.25H8.39999C8.42728 6.24977 8.45343 6.23902 8.47299 6.22L13.013 1.677Z" fill="#88109B"/>
<path d="M6.513 1.677C6.54805 1.64204 6.57194 1.59745 6.58162 1.5489C6.5913 1.50034 6.58635 1.45001 6.56739 1.40427C6.54843 1.35853 6.51632 1.31945 6.47513 1.29199C6.43393 1.26453 6.38551 1.24991 6.336 1.25H2.5C1.83696 1.25 1.20107 1.51339 0.732233 1.98223C0.263392 2.45107 0 3.08696 0 3.75L0 5.75C0 5.88261 0.0526784 6.00979 0.146447 6.10355C0.240215 6.19732 0.367392 6.25 0.5 6.25H1.9C1.92729 6.24977 1.95344 6.23902 1.973 6.22L6.513 1.677Z" fill="#88109B"/>
</g>
<defs>
<clipPath id="clip0">
<rect width="24" height="24" fill="white"/>
</clipPath>
</defs>
</svg>
