<svg xmlns="http://www.w3.org/2000/svg" width="24" height="24" viewBox="0 0 24 24">
    <g fill="none" fill-rule="evenodd">
        <path d="M0 0H24V24H0z"/>
        <path stroke="#88109B" stroke-linecap="round" stroke-linejoin="round" stroke-width="1.5" d="M6 3.75H2.25c-.828 0-1.5.672-1.5 1.5V16.5c0 .828.672 1.5 1.5 1.5H16.9c.568 0 1.088-.32 1.342-.829L20.25 13.5h1.5c.828 0 1.5-.672 1.5-1.5V9.75c0-.828-.672-1.5-1.5-1.5h-1.5l-2.012-3.671c-.254-.507-.771-.828-1.338-.829H15"/>
        <path stroke="#88109B" stroke-linecap="round" stroke-linejoin="round" stroke-width="1.5" d="M5.585 13.421L4.5 11.25h12l-1.085 2.171c-.254.508-.774.83-1.342.829H6.927c-.568 0-1.088-.32-1.342-.829zM9 11.25V3c2.25 0 4.5 2.25 4.5 5.25H9M15.75 18L17.25 21M4.5 18L3 21"/>
    </g>
</svg>
