<svg xmlns="http://www.w3.org/2000/svg" width="24" height="24" viewBox="0 0 24 24">
    <g fill="none" fill-rule="evenodd">
        <path d="M0 0H24V24H0z"/>
        <path fill="#E62557" fill-rule="nonzero" d="M23.273 12.116c-.19-.232-.474-.366-.774-.366H10.2c-.476 0-.886-.334-.981-.8l-.278-1.397c-.095-.466-.505-.8-.981-.8H1.5c-.3 0-.585.135-.775.367-.19.233-.265.539-.205.833l2.6 13c.095.466.505.8.981.8H20.5c.475 0 .885-.334.98-.8l2-10c.061-.296-.015-.604-.207-.837zM5.5 6.75c.552 0 1-.448 1-1v-3c0-.276.224-.5.5-.5h12c.276 0 .5.224.5.5v6c0 .552.448 1 1 1s1-.448 1-1v-6.5c0-1.105-.895-2-2-2h-13c-1.105 0-2 .895-2 2v3.5c0 .552.448 1 1 1z"/>
    </g>
</svg>
