<svg xmlns="http://www.w3.org/2000/svg" width="24" height="24" viewBox="0 0 24 24">
    <g fill="none" fill-rule="evenodd">
        <path d="M0 0H24V24H0z"/>
        <path stroke="#88109B" stroke-linecap="round" stroke-linejoin="round" stroke-width="1.5" d="M12 4.57C8.764 2.586 5.077 1.459 1.285 1.293c-.14-.006-.275.045-.376.141-.1.095-.158.227-.159.366v16.742c0 .274.216.5.49.511 3.472-.495 6.996.428 9.781 2.559.31.128.647.175.98.135"/>
        <path stroke="#88109B" stroke-linecap="round" stroke-linejoin="round" stroke-width="1.5" d="M12 4.57c3.236-1.984 6.923-3.111 10.715-3.277.14-.006.275.045.376.141.102.096.159.23.159.369v16.739c0 .274-.216.5-.49.511-3.472-.495-6.996.428-9.781 2.559-.31.128-.647.175-.98.135M12 4.57L12 21.757"/>
        <path stroke="#88109B" stroke-linecap="round" stroke-linejoin="round" stroke-width="1.5" d="M2.25 18.974V22.2c0 .155.07.303.191.4.121.097.28.134.432.1 3.002-.626 6.06-.942 9.127-.942 2.886-.002 5.764.313 8.582.937.152.033.31-.004.431-.101s.192-.244.192-.399v-3.237"/>
    </g>
</svg>
