<svg xmlns="http://www.w3.org/2000/svg" width="24" height="24" viewBox="0 0 24 24">
    <g fill="none" fill-rule="evenodd" stroke="#88109B" stroke-linecap="round" stroke-linejoin="round" stroke-width="1.5">
        <path d="M10.182 17.434c.208 1.328-.308 2.665-1.353 3.51-1.046.844-2.462 1.066-3.716.583-1.254-.484-2.155-1.6-2.363-2.927l-.116-.743c-.063-.394.034-.797.27-1.12.234-.323.588-.538.983-.599l4.46-.7c.394-.063.797.034 1.12.27.323.234.538.588.599.983l.116.743zM4.3.849C1.906 1.441.381 3.787.812 6.215l.888 5.693c.129.82.898 1.382 1.719 1.254l4.459-.7c.395-.06.75-.276.985-.599.235-.322.332-.726.269-1.12l-.02-.143c-.136-.874-.011-1.768.359-2.571.371-.803.496-1.699.359-2.573l-.139-.89c-.192-1.223-.878-2.314-1.897-3.016C6.774.847 5.51.593 4.3.849zM13.541 18.82c-.292 2.007 1.059 3.884 3.054 4.244 1.996.36 3.918-.926 4.346-2.908l.133-.741c.147-.817-.396-1.6-1.213-1.748l-4.442-.8c-.393-.072-.798.015-1.127.243-.328.228-.551.578-.621.971l-.13.739zM19.812 2.376c2.376.65 3.843 3.03 3.357 5.445l-1.023 5.672c-.07.393-.293.742-.621.97-.328.227-.733.315-1.125.243l-4.442-.8c-.393-.07-.743-.293-.97-.621-.229-.329-.316-.734-.244-1.127l.026-.146c.157-.87.052-1.767-.3-2.578-.352-.811-.457-1.709-.3-2.579l.16-.886c.22-1.22.931-2.296 1.968-2.976 1.037-.68 2.308-.903 3.514-.617h0z"/>
    </g>
</svg>
