<svg xmlns="http://www.w3.org/2000/svg" width="24" height="24" viewBox="0 0 24 24">
    <g fill="none" fill-rule="evenodd" stroke="#88109B" stroke-linecap="round" stroke-linejoin="round" stroke-width="1.5">
        <path d="M17.25 6.359V22.51c0 .414-.336.75-.75.75h-12c-.414 0-.75-.336-.75-.75V6.76M20.25 20.26l1.5 3 1.5-3v-9.75c0-.828-.672-1.5-1.5-1.5h0c-.828 0-1.5.672-1.5 1.5v9.75z"/>
        <path d="M3.75.76h0c1.657 0 3 1.343 3 3h0c0 1.657-1.343 3-3 3h12c1.657 0 3-1.343 3-3h0c0-1.657-1.343-3-3-3h-12zM3.75.76h0c-1.657 0-3 1.343-3 3v12M9 11.26L10.5 12.76 12.75 10.51M9 16.51L10.5 18.01 12.75 15.76"/>
    </g>
</svg>
