<svg xmlns="http://www.w3.org/2000/svg" width="24" height="24" viewBox="0 0 24 24">
    <g fill="none" fill-rule="evenodd">
        <path d="M0 0H24V24H0z"/>
        <path stroke="#88109B" stroke-linecap="round" stroke-linejoin="round" stroke-width="1.5" d="M4.73 16.6l-1.308.066c-.773.04-1.488-.41-1.785-1.124-.297-.715-.111-1.54.463-2.058l.972-.877c.384-.347.603-.84.603-1.357 0-.518-.22-1.011-.603-1.358L2.1 9.015c-.575-.519-.761-1.344-.464-2.059.297-.715 1.013-1.165 1.786-1.124L4.73 5.9c.517.026 1.02-.167 1.387-.534.366-.366.559-.87.532-1.387l-.067-1.308c-.04-.773.411-1.487 1.126-1.783.715-.296 1.539-.11 2.057.465l.878.972c.347.384.84.603 1.357.603s1.01-.219 1.357-.603l.878-.972c.518-.574 1.342-.76 2.057-.465.715.296 1.166 1.01 1.126 1.783l-.067 1.308c-.027.517.166 1.021.532 1.387.366.367.87.56 1.387.534l1.308-.066c.772-.04 1.487.41 1.784 1.124.296.714.112 1.538-.462 2.057l-.972.877c-.384.347-.603.84-.603 1.357 0 .518.22 1.011.603 1.358l.972.877c.575.518.76 1.342.464 2.057-.296.715-1.01 1.166-1.783 1.126L19.27 16.6M10.5 22.5L13.5 22.5"/>
        <path stroke="#88109B" stroke-linecap="round" stroke-linejoin="round" stroke-width="1.5" d="M17.25 12c.013-2.707-2.034-4.98-4.727-5.249-2.693-.27-5.15 1.552-5.674 4.208-.524 2.655 1.057 5.274 3.651 6.047V19.5h3v-2.494c2.22-.656 3.744-2.692 3.75-5.006z"/>
    </g>
</svg>
