<svg xmlns="http://www.w3.org/2000/svg" width="24" height="24" viewBox="0 0 24 24">
    <g fill="none" fill-rule="evenodd">
        <path d="M0 0H24V24H0z"/>
        <path stroke="#88109B" stroke-linecap="round" stroke-linejoin="round" stroke-width="1.5" d="M6.038 5.478C6.594 8.687 8.548 10.885 12 12c3.452-1.115 5.406-3.313 5.962-6.522.067-.434-.06-.875-.347-1.208-.287-.332-.705-.522-1.144-.52H7.529c-.44-.002-.857.188-1.144.52-.287.333-.414.774-.347 1.208zM3.75.75L20.25.75M7.529 20.25c-.439.002-.857-.188-1.144-.52-.287-.332-.413-.773-.347-1.207C6.594 15.314 8.548 13.116 12 12c3.452 1.116 5.406 3.314 5.962 6.523.066.434-.06.875-.347 1.207-.287.332-.705.522-1.144.52H7.529zM3.75 23.25L20.25 23.25"/>
    </g>
</svg>
