<svg width="416" height="86" viewBox="0 0 416 86" xmlns="http://www.w3.org/2000/svg" xmlns:xlink="http://www.w3.org/1999/xlink"><defs><path id="a" d="M0 .676h25.671V85.26H.001V.676z"/></defs><g fill="none" fill-rule="evenodd"><path d="M128.008 53.848c.91-1.117 2.576-1.27 3.686-.356 2.22 1.83 6.057 3.965 9.64 3.913 2.525 0 4.797-.762 6.31-1.88 1.516-1.118 2.173-2.388 2.173-3.659 0-.661-.153-1.119-.456-1.626-.304-.508-.757-1.017-1.513-1.525-1.466-.965-3.94-1.829-6.917-2.388h-.1c-2.373-.458-4.595-1.067-6.511-1.982-1.92-.915-3.586-2.184-4.696-3.964-.757-1.22-1.161-2.642-1.161-4.167 0-3.049 1.715-5.692 4.037-7.42 2.374-1.727 5.452-2.694 8.733-2.694 4.848 0 8.431 2.39 11.006 4.066 1.16.813 1.514 2.44.706 3.609a2.538 2.538 0 0 1-3.584.761c-2.573-1.727-5.048-3.251-8.128-3.251-2.27 0-4.29.711-5.653 1.728-1.363 1.015-1.917 2.133-1.917 3.201 0 .608.1 1.016.353 1.423.252.406.707.863 1.363 1.32 1.313.916 3.583 1.73 6.31 2.237h.101c2.573.508 4.947 1.169 6.965 2.134 2.07 1.017 3.888 2.338 5.048 4.218a8.28 8.28 0 0 1 1.212 4.32c0 3.253-1.816 6.047-4.342 7.877-2.472 1.83-5.754 2.897-9.339 2.897-5.452-.052-10.043-2.795-12.922-5.083-1.11-.914-1.263-2.592-.404-3.709M169.162 43.6h6.134a5.155 5.155 0 0 0 5.187-5.072c-.05-2.883-2.294-5.17-5.187-5.17h-6.134V43.6zm6.134 5.517h-6.134v10.788c0 1.493-1.247 2.735-2.79 2.735-1.498 0-2.745-1.242-2.745-2.735v-29.33a2.73 2.73 0 0 1 2.745-2.735h8.924c5.934 0 10.722 4.772 10.722 10.688 0 5.818-4.788 10.59-10.722 10.59zM205.546 48.95l-4.027-10.702-4.026 10.702h8.053zm2.038 5.475h-12.078l-2.437 6.473a2.787 2.787 0 0 1-2.584 1.742c-.348 0-.646-.05-.944-.149-1.442-.548-2.138-2.141-1.64-3.585l10.984-29.321c.447-1.095 1.542-1.793 2.634-1.742 1.144-.051 2.187.647 2.635 1.742l10.986 29.32c.496 1.445-.2 3.038-1.64 3.586-.25.098-.598.149-.946.149-1.093 0-2.136-.648-2.535-1.742l-2.435-6.473zM220.466 44.37c.05-10.048 8.362-18.22 18.376-18.27 4.406 0 8.411 1.471 11.565 3.958 1.203 1.015 1.404 2.793.502 4.06-1.002 1.27-2.855 1.473-4.006.559-2.203-1.826-4.956-2.792-8.06-2.792-3.456 0-6.66 1.421-9.014 3.654-2.253 2.335-3.655 5.38-3.655 8.832 0 3.45 1.402 6.597 3.655 8.83 2.353 2.233 5.558 3.654 9.013 3.654 3.105 0 5.808-.964 8.06-2.79 1.152-.864 3.005-.66 4.007.557.902 1.269.7 3.095-.502 4.06-3.154 2.487-7.159 3.958-11.565 3.958-10.014 0-18.326-8.17-18.376-18.27M260.081 59.905v-29.33c0-1.542 1.23-2.735 2.817-2.735h16.757c1.487 0 2.817 1.193 2.817 2.735 0 1.54-1.33 2.783-2.817 2.783h-13.886v9.098h11.938c1.539 0 2.82 1.292 2.82 2.734 0 1.54-1.281 2.784-2.82 2.784h-11.938v9.148h13.886c1.487 0 2.817 1.243 2.817 2.783 0 1.492-1.33 2.735-2.817 2.735h-16.602c-.104 0-.104-.05-.104-.05l-.05.05c-1.589 0-2.818-1.243-2.818-2.735M289.913 53.848c.91-1.117 2.575-1.27 3.684-.356 2.223 1.83 6.058 3.965 9.643 3.913 2.525 0 4.796-.762 6.31-1.88 1.514-1.118 2.171-2.388 2.171-3.659 0-.661-.152-1.119-.454-1.626-.304-.508-.758-1.017-1.515-1.525-1.464-.965-3.938-1.829-6.917-2.388h-.1c-2.372-.458-4.594-1.067-6.512-1.982-1.919-.915-3.584-2.184-4.694-3.964-.757-1.22-1.163-2.642-1.163-4.167 0-3.049 1.717-5.692 4.04-7.42 2.371-1.727 5.452-2.694 8.733-2.694 4.847 0 8.43 2.39 11.006 4.066 1.16.813 1.513 2.44.706 3.609a2.539 2.539 0 0 1-3.584.761c-2.575-1.727-5.05-3.251-8.128-3.251-2.273 0-4.291.711-5.655 1.728-1.362 1.015-1.916 2.133-1.916 3.201 0 .608.1 1.016.352 1.423.253.406.708.863 1.363 1.32 1.312.916 3.583 1.73 6.312 2.237h.1c2.574.508 4.947 1.169 6.966 2.134 2.07 1.017 3.887 2.338 5.048 4.218.758 1.22 1.211 2.745 1.211 4.32 0 3.253-1.817 6.047-4.341 7.877-2.473 1.83-5.755 2.897-9.34 2.897-5.451-.052-10.045-2.795-12.923-5.083-1.11-.914-1.262-2.592-.403-3.709" fill="#FFF"/><g><mask id="b" fill="#fff"><use xlink:href="#a"/></mask><path d="M2.784 3.513c-.392.055-.767.23-1.106.498-.337.268-.64.63-.895 1.059-.253.428-.44.924-.581 1.462C.06 7.07 0 7.652 0 8.252v69.441c0 .6.06 1.18.2 1.718.143.538.34 1.033.592 1.46.254.427.552.788.89 1.056.34.267.71.442 1.104.496l17.512 2.79a4.618 4.618 0 0 0 2.107-.182 4.574 4.574 0 0 0 1.744-1.065c.5-.486.854-1.091 1.135-1.787.282-.698.386-1.486.386-2.335V6.103c0-.848-.104-1.637-.386-2.336-.281-.697-.66-1.304-1.16-1.791a4.546 4.546 0 0 0-1.732-1.07A4.6 4.6 0 0 0 20.29.723L2.784 3.513" fill="#FFF" mask="url(#b)"/></g><path d="M108.43 50.844c-.607 2.29-1.483 4.37-2.602 6.183-1.145 1.85-2.491 3.342-4.004 4.435-1.61 1.162-3.34 1.823-5.146 1.963a9.317 9.317 0 0 1-.71.028c-1.602 0-3.172-.42-4.665-1.247-1.68-.931-3.198-2.333-4.513-4.17-1.326-1.851-2.37-4.042-3.104-6.51-.766-2.572-1.153-5.313-1.153-8.15 0-2.839.387-5.58 1.153-8.146.734-2.464 1.778-4.647 3.105-6.49 1.314-1.825 2.833-3.216 4.513-4.132 1.471-.806 3.02-1.214 4.6-1.214.256 0 .517.012.777.034 1.805.152 3.536.826 5.144 1.999 1.513 1.102 2.86 2.604 4.003 4.461 1.12 1.821 1.995 3.908 2.603 6.2a28.89 28.89 0 0 1 .937 7.383 28.79 28.79 0 0 1-.937 7.373M74.273 36.08a4.15 4.15 0 0 1-.483 1.23 3.046 3.046 0 0 1-.85.937 2.24 2.24 0 0 1-.327.193 2.166 2.166 0 0 1-1.022.238h-.015a2.239 2.239 0 0 1-.78-.161 2.666 2.666 0 0 1-.704-.424 3.201 3.201 0 0 1-.597-.655 4.103 4.103 0 0 1-.452-.86 15.907 15.907 0 0 0-1.701-3.268 12.932 12.932 0 0 0-2.256-2.537 10.482 10.482 0 0 0-2.687-1.687 8.937 8.937 0 0 0-3.511-.73c-1.348 0-2.67.314-3.927.931-1.401.688-2.668 1.721-3.766 3.068-1.118 1.373-2 2.996-2.62 4.823a18.773 18.773 0 0 0-.978 6.056c0 2.105.329 4.144.978 6.057.62 1.833 1.503 3.461 2.621 4.843 1.099 1.36 2.367 2.402 3.766 3.1a8.89 8.89 0 0 0 4.435.951 8.853 8.853 0 0 0 2.912-.66 10.39 10.39 0 0 0 2.631-1.587 12.782 12.782 0 0 0 2.232-2.4c.67-.93 1.247-1.972 1.716-3.1.126-.3.278-.576.456-.82.177-.24.375-.448.59-.62.218-.172.451-.306.694-.397.247-.094.503-.144.797-.148a2.177 2.177 0 0 1 1.058.274c.116.061.231.135.343.22.326.248.605.575.827.97.213.375.365.795.458 1.25a4.912 4.912 0 0 1-.252 2.763 23.717 23.717 0 0 1-2.535 4.677 19.771 19.771 0 0 1-3.341 3.697 16.259 16.259 0 0 1-4.014 2.533 13.952 13.952 0 0 1-4.529 1.14c-.347.027-.692.04-1.037.04-2.034 0-4.034-.456-5.943-1.355-2.204-1.038-4.201-2.618-5.935-4.696-1.758-2.107-3.145-4.606-4.123-7.425-1.019-2.943-1.536-6.083-1.536-9.33 0-3.248.517-6.383 1.536-9.32.978-2.813 2.365-5.301 4.124-7.395 1.734-2.064 3.731-3.631 5.937-4.653 1.876-.87 3.843-1.312 5.844-1.312a14.12 14.12 0 0 1 5.803 1.275 16.4 16.4 0 0 1 4.096 2.682 20.162 20.162 0 0 1 3.373 3.9 24.472 24.472 0 0 1 2.51 4.926c.164.44.262.907.293 1.391.027.465-.01.93-.109 1.375m41.892-20.9c-.137-.538-.449-1.034-.697-1.462a3.955 3.955 0 0 0-.927-1.058 2.315 2.315 0 0 0-1.106-.499L33.575.724a4.433 4.433 0 0 0-2.063.183 4.461 4.461 0 0 0-1.705 1.069c-.485.486-.744 1.094-1.019 1.792-.274.697-.288 1.487-.288 2.335v73.742c0 .847.013 1.635.287 2.333.273.697.6 1.302 1.087 1.787.486.484 1.029.849 1.666 1.065a4.314 4.314 0 0 0 2.039.182l79.838-11.439c.382-.054.742-.229 1.072-.497.329-.267.621-.627.87-1.056.248-.426.67-.92.808-1.459.138-.538.438-1.118.438-1.718V16.901c0-.6-.301-1.181-.44-1.72" fill="#FFF"/><path d="M104.421 49.344c.428-1.57.645-3.234.645-4.941 0-1.71-.217-3.374-.645-4.947-.414-1.522-1.01-2.902-1.768-4.099-.761-1.2-1.648-2.158-2.638-2.85-1.027-.714-2.121-1.11-3.254-1.177a5.493 5.493 0 0 0-.336-.01c-1.03 0-2.038.277-2.997.825-1.06.604-2.019 1.508-2.851 2.686-.85 1.203-1.52 2.62-1.99 4.217a18.632 18.632 0 0 0-.745 5.29c0 1.84.25 3.621.744 5.294.472 1.6 1.14 3.024 1.99 4.233.833 1.184 1.794 2.094 2.853 2.707.974.562 1.996.848 3.04.848.099 0 .197-.003.295-.008 1.131-.059 2.225-.447 3.252-1.155.99-.683 1.876-1.634 2.637-2.829.758-1.192 1.354-2.565 1.768-4.084M341.033 55.506V34.974c0-1.079.852-1.914 1.951-1.914H354.584c1.029 0 1.951.835 1.951 1.914s-.922 1.949-1.95 1.949h-9.613v6.368h8.264c1.066 0 1.951.904 1.951 1.915a1.955 1.955 0 0 1-1.95 1.947h-8.265v6.404h9.612c1.029 0 1.951.87 1.951 1.95 0 1.043-.922 1.913-1.95 1.913h-11.493c-.07 0-.07-.035-.07-.035l-.038.035c-1.1 0-1.95-.87-1.95-1.914M363.643 53.558h2.045c4.356-.035 7.853-3.723 7.853-8.353 0-4.558-3.497-8.283-7.853-8.283h-2.045v16.636zm-3.663 1.948v-20.53c0-1.08.792-1.916 1.814-1.916h3.894c6.369 0 11.516 5.464 11.516 12.145 0 6.752-5.147 12.215-11.516 12.215h-3.894c-1.022 0-1.814-.871-1.814-1.914zM391.844 57.42c-5.277 0-9.473-4.523-9.473-10.057V34.975c0-1.08.788-1.915 1.804-1.915.983 0 1.835.835 1.835 1.915v12.388c0 3.41 2.62 6.195 5.834 6.195 3.245 0 5.834-2.785 5.834-6.195V34.975c0-1.08.82-1.915 1.835-1.915 1.016 0 1.804.835 1.804 1.915v12.388c0 5.534-4.228 10.057-9.473 10.057" fill="#FFF"/><path d="M369.5 68.769c-15.497 0-29.92-3.006-38.86-8.055-1.193-2.284-2.384-8.173-2.384-16.468s1.191-14.186 2.383-16.469c8.94-5.049 23.364-8.054 38.86-8.054 15.497 0 29.921 3.005 38.86 8.054 1.194 2.283 2.385 8.174 2.385 16.469 0 8.295-1.19 14.184-2.385 16.468-8.939 5.05-23.363 8.055-38.86 8.055zm41.84-44.117l-.476-.241c-3.1-1.803-17.146-9.56-41.484-9.56-26.564 0-38.383 7.757-41.482 9.56l-.478.24-.119.36c-2.025 3.246-3.337 10.58-3.337 19.235s1.312 15.988 3.337 19.233l.239.481.477.24c3.1 1.804 16.949 9.561 41.482 9.561 24.936 0 38.384-7.757 41.484-9.561l.476-.24.239-.481c2.026-3.245 3.338-10.578 3.338-19.233 0-8.655-1.312-15.989-3.338-19.235l-.358-.36z" fill="#FFF"/></g></svg>