<svg xmlns="http://www.w3.org/2000/svg" width="24" height="24" viewBox="0 0 24 24">
    <g fill="none" fill-rule="evenodd" stroke="#88109B" stroke-linecap="round" stroke-linejoin="round" stroke-width="1.5">
        <path d="M20.25 23.25H3.75V9C3.75 4.444 7.444.75 12 .75S20.25 4.444 20.25 9v14.25zM6.75 17.25L17.25 17.25M8.25 17.25L8.25 19.5"/>
        <path d="M12 .75C9.46.748 7.063 1.917 5.5 3.918l.742 3.461c.297 1.383 1.519 2.37 2.933 2.371h5.65c1.414 0 2.636-.988 2.933-2.371l.742-3.461C16.937 1.917 14.54.748 12 .75zM.75 20.25c0 1.657 1.343 3 3 3V15c-1.657 0-3 1.343-3 3v2.25zM23.25 20.25c0 1.657-1.343 3-3 3V15c1.657 0 3 1.343 3 3v2.25zM9.75 8.25L9.75 11.25M14.25 8.25L14.25 11.25"/>
    </g>
</svg>
