<svg xmlns="http://www.w3.org/2000/svg" width="24" height="24" viewBox="0 0 24 24">
    <g fill="none" fill-rule="evenodd">
        <path d="M0 0H24V24H0z"/>
        <path stroke="#88109B" stroke-linecap="round" stroke-linejoin="round" stroke-width="1.5" d="M.75 6.26c0-.613.373-1.165.943-1.393l5.381-2.152c.752-.3 1.593-.285 2.333.044l4.487 1.994c.71.315 1.514.343 2.244.078l5.1-1.855c.46-.167.973-.1 1.374.181.4.28.639.74.639 1.229v13.308c0 .63-.395 1.193-.987 1.409l-6.125 2.228c-.73.265-1.534.237-2.244-.078l-4.488-1.994c-.74-.329-1.581-.345-2.333-.044l-4.267 1.707c-.462.185-.986.128-1.398-.15-.412-.28-.659-.745-.659-1.243V6.26zM12.375 11.244c.207 0 .375.168.375.375M12 11.619c0-.207.168-.375.375-.375M12.375 11.994c-.207 0-.375-.168-.375-.375M12.75 11.619c0 .207-.168.375-.375.375M9.375 13.75c.207 0 .375.168.375.375M9 14.125c0-.207.168-.375.375-.375M9.375 14.5c-.207 0-.375-.168-.375-.375M9.75 14.125c0 .207-.168.375-.375.375M6.375 11.5c.207 0 .375.168.375.375M6 11.875c0-.207.168-.375.375-.375M6.375 12.25c-.207 0-.375-.168-.375-.375M6.75 11.875c0 .207-.168.375-.375.375M4.125 14.5c.207 0 .375.168.375.375M3.75 14.875c0-.207.168-.375.375-.375M4.125 15.25c-.207 0-.375-.168-.375-.375M4.5 14.875c0 .207-.168.375-.375.375M15.75 8.244L20.25 12.744M15.75 12.744L20.25 8.244"/>
    </g>
</svg>
